<?xml version="1.0" encoding="UTF-8"?>
<svg width="20px" height="20px" viewBox="0 0 20 20" version="1.1" xmlns="http://www.w3.org/2000/svg" xmlns:xlink="http://www.w3.org/1999/xlink">
    <!-- Generator: Sketch 63.1 (92452) - https://sketch.com -->
    <title>Group 13</title>
    <desc>Created with Sketch.</desc>
    <g id="Page-1" stroke="none" stroke-width="1" fill="none" fill-rule="evenodd">
        <g id="MOOZ——工作区-Copy" transform="translate(-41.000000, -417.000000)">
            <g id="Group-13" transform="translate(41.000000, 417.000000)" fill="#839ABF">
                <path d="M2,8 L18,8 C19.1045695,8 20,8.8954305 20,10 C20,11.1045695 19.1045695,12 18,12 L2,12 C0.8954305,12 1.3527075e-16,11.1045695 0,10 C-1.3527075e-16,8.8954305 0.8954305,8 2,8 Z" id="Rectangle-9"></path>
                <path d="M2,8 L18,8 C19.1045695,8 20,8.8954305 20,10 C20,11.1045695 19.1045695,12 18,12 L2,12 C0.8954305,12 1.3527075e-16,11.1045695 0,10 C-1.3527075e-16,8.8954305 0.8954305,8 2,8 Z" id="Rectangle-9-Copy" transform="translate(10.000000, 10.000000) rotate(90.000000) translate(-10.000000, -10.000000) "></path>
            </g>
        </g>
    </g>
</svg>