<?xml version="1.0" encoding="UTF-8"?>
<svg width="22px" height="24px" viewBox="0 0 22 24" version="1.1" xmlns="http://www.w3.org/2000/svg" xmlns:xlink="http://www.w3.org/1999/xlink">
    <!-- Generator: Sketch 63 (92445) - https://sketch.com -->
    <title>icon/文件管理（选中）</title>
    <desc>Created with Sketch.</desc>
    <defs>
        <polygon id="path-1" points="0.454154876 0.901476923 11.9555652 0.901476923 11.9555652 11.9996308 0.454154876 11.9996308"></polygon>
        <polygon id="path-3" points="0 0 21.043287 0 21.043287 24 0 24"></polygon>
    </defs>
    <g id="文件管理" stroke="none" stroke-width="1" fill="none" fill-rule="evenodd">
        <g id="文件管理（缩略图状态）默认不选中任何文件" transform="translate(-38.000000, -578.000000)">
            <g id="编组-12备份" transform="translate(25.000000, 571.000000)">
                <g id="icon/文件管理（选中）" transform="translate(13.000000, 7.000000)">
                    <g id="编组" transform="translate(9.565217, 12.000000)">
                        <mask id="mask-2" fill="white">
                            <use xlink:href="#path-1"></use>
                        </mask>
                        <g id="Clip-2"></g>
                        <path d="M5.54763478,2.67101538 C3.75033043,2.67101538 2.2878087,4.0824 2.2878087,5.81686154 C2.2878087,7.55132308 3.75033043,8.96270769 5.54763478,8.96270769 C7.34493913,8.96270769 8.80746087,7.55132308 8.80746087,5.81686154 C8.80172174,4.0824 7.34015652,2.67101538 5.54763478,2.67101538 M11.0352,11.9996308 C10.8410261,11.9996308 10.6458957,11.9424 10.4813739,11.8224 L10.3933739,11.7439385 L8.44111304,9.85993846 C7.4578087,10.5190154 6.27363478,10.8190154 5.07128696,10.7110154 C3.7178087,10.5891692 2.49441739,9.96516923 1.62589565,8.95624615 C0.869286957,8.07470769 0.4532,6.96055385 0.454154876,5.81686154 C0.454154876,3.10670769 2.73833043,0.901476923 5.54763478,0.901476923 C8.35598261,0.901476923 10.641113,3.10670769 10.641113,5.81686154 C10.641113,6.81932308 10.3225913,7.79593846 9.7372,8.61009231 L11.6875478,10.4913231 C12.0290261,10.8208615 12.0462435,11.3525538 11.7286783,11.7014769 C11.5469391,11.8990154 11.2925043,11.9996308 11.0352,11.9996308" id="Fill-1" fill="#FFFFFF" mask="url(#mask-2)"></path>
                    </g>
                    <g id="编组">
                        <mask id="mask-4" fill="white">
                            <use xlink:href="#path-3"></use>
                        </mask>
                        <g id="Clip-4"></g>
                        <path d="M19.3789391,0 L1.66415652,0 C0.74493913,0 -0.000191304348,0.719076923 -0.000191304348,1.60615385 L-0.000191304348,22.3938462 C-0.000191304348,23.2809231 0.74493913,24 1.66415652,24 L9.56502609,24 C10.0930261,24 10.5215478,23.5864615 10.5215478,23.0769231 C10.5215478,22.5673846 10.0930261,22.1538462 9.56502609,22.1538462 L1.91285217,22.1538462 L1.91285217,1.84615385 L19.1302435,1.84615385 L19.1302435,10.6153846 C19.1302435,11.1249231 19.5587652,11.5384615 20.0867652,11.5384615 C20.6147652,11.5384615 21.043287,11.1249231 21.043287,10.6153846 L21.043287,1.60615385 C21.043287,0.719076923 20.2981565,0 19.3789391,0" id="Fill-3" stroke="#FFFFFF" stroke-width="0.3" fill="#FFFFFF" mask="url(#mask-4)"></path>
                    </g>
                    <path d="M14.3478261,6.92307692 L4.7826087,6.92307692 C4.2546087,6.92307692 3.82608696,6.50953846 3.82608696,6 C3.82608696,5.49046154 4.2546087,5.07692308 4.7826087,5.07692308 L14.3478261,5.07692308 C14.8758261,5.07692308 15.3043478,5.49046154 15.3043478,6 C15.3043478,6.50953846 14.8758261,6.92307692 14.3478261,6.92307692" id="Fill-5" stroke="#FFFFFF" stroke-width="0.3" fill="#FFFFFF"></path>
                    <path d="M9.56521739,12.4615385 L4.7826087,12.4615385 C4.2546087,12.4615385 3.82608696,12.0489231 3.82608696,11.5384615 C3.82608696,11.028 4.2546087,10.6153846 4.7826087,10.6153846 L9.56521739,10.6153846 C10.0932174,10.6153846 10.5217391,11.028 10.5217391,11.5384615 C10.5217391,12.0489231 10.0932174,12.4615385 9.56521739,12.4615385" id="Fill-7" stroke="#FFFFFF" stroke-width="0.3" fill="#FFFFFF"></path>
                </g>
            </g>
        </g>
    </g>
</svg>