<?xml version="1.0" encoding="UTF-8"?>
<svg width="28px" height="29px" viewBox="0 0 28 29" version="1.1" xmlns="http://www.w3.org/2000/svg" xmlns:xlink="http://www.w3.org/1999/xlink">
<!-- Generator: Sketch 63.1 (92452) - https://sketch.com -->
<title>Group 12</title>
<desc>Created with Sketch.</desc>
<g id="Page-1" stroke="none" stroke-width="1" fill="none" fill-rule="evenodd">
<g id="MOOZ——激光测试" transform="translate(-38.000000, -211.000000)">
<g id="Group-12" transform="translate(38.000000, 211.000000)">
<g id="Group-11" transform="translate(0.000000, 8.093023)" fill="#FFFFFF">
<path d="M10.3846154,0 C11.1493173,-1.40473471e-16 11.7692308,0.619913423 11.7692308,1.38461538 L11.7692308,5.35957066 C11.7692308,6.12427262 11.1493173,6.74418605 10.3846154,6.74418605 C9.61991342,6.74418605 9,6.12427262 9,5.35957066 L9,1.38461538 C9,0.619913423 9.61991342,1.40473471e-16 10.3846154,0 Z" id="Rectangle-8"></path>
<path d="M5.50367132,1.98936457 C6.26837329,1.98936457 6.88828671,2.60927799 6.88828671,3.37397996 L6.88828671,7.34893523 C6.88828671,8.11363719 6.26837329,8.73355062 5.50367132,8.73355062 C4.73896936,8.73355062 4.11905594,8.11363719 4.11905594,7.34893523 L4.11905594,3.37397996 C4.11905594,2.60927799 4.73896936,1.98936457 5.50367132,1.98936457 Z" id="Rectangle-8-Copy" transform="translate(5.503671, 5.361458) rotate(-45.000000) translate(-5.503671, -5.361458) "></path>
<path d="M15.8882867,12.1395349 C16.6529887,12.1395349 17.2729021,12.7594483 17.2729021,13.5241503 L17.2729021,17.4991055 C17.2729021,18.2638075 16.6529887,18.8837209 15.8882867,18.8837209 C15.1235847,18.8837209 14.5036713,18.2638075 14.5036713,17.4991055 L14.5036713,13.5241503 C14.5036713,12.7594483 15.1235847,12.1395349 15.8882867,12.1395349 Z" id="Rectangle-8-Copy-3" transform="translate(15.888287, 15.511628) rotate(-45.000000) translate(-15.888287, -15.511628) "></path>
<path d="M3.46153846,7.41860465 C4.22624042,7.41860465 4.84615385,8.03851807 4.84615385,8.80322004 L4.84615385,12.7781753 C4.84615385,13.5428773 4.22624042,14.1627907 3.46153846,14.1627907 C2.6968365,14.1627907 2.07692308,13.5428773 2.07692308,12.7781753 L2.07692308,8.80322004 C2.07692308,8.03851807 2.6968365,7.41860465 3.46153846,7.41860465 Z" id="Rectangle-8-Copy-2" transform="translate(3.461538, 10.790698) rotate(-90.000000) translate(-3.461538, -10.790698) "></path>
<path d="M18,7.41860465 C18.764702,7.41860465 19.3846154,8.03851807 19.3846154,8.80322004 L19.3846154,12.7781753 C19.3846154,13.5428773 18.764702,14.1627907 18,14.1627907 C17.235298,14.1627907 16.6153846,13.5428773 16.6153846,12.7781753 L16.6153846,8.80322004 C16.6153846,8.03851807 17.235298,7.41860465 18,7.41860465 Z" id="Rectangle-8-Copy-4" transform="translate(18.000000, 10.790698) rotate(-90.000000) translate(-18.000000, -10.790698) "></path>
</g>
<g id="Group-11-Copy" transform="translate(6.518784, 24.616279) rotate(-90.000000) translate(-6.518784, -24.616279) translate(2.018784, 18.616279)" fill="#FFFFFF">
<path d="M5.50367132,0.966108758 C6.26837329,0.966108758 6.88828671,1.58602218 6.88828671,2.35072414 L6.88828671,6.32567942 C6.88828671,7.09038138 6.26837329,7.7102948 5.50367132,7.7102948 C4.73896936,7.7102948 4.11905594,7.09038138 4.11905594,6.32567942 L4.11905594,2.35072414 C4.11905594,1.58602218 4.73896936,0.966108758 5.50367132,0.966108758 Z" id="Rectangle-8-Copy" transform="translate(5.503671, 4.338202) rotate(-45.000000) translate(-5.503671, -4.338202) "></path>
<path d="M3.46153846,6.39534884 C4.22624042,6.39534884 4.84615385,7.01526226 4.84615385,7.77996422 L4.84615385,11.7549195 C4.84615385,12.5196215 4.22624042,13.1395349 3.46153846,13.1395349 C2.6968365,13.1395349 2.07692308,12.5196215 2.07692308,11.7549195 L2.07692308,7.77996422 C2.07692308,7.01526226 2.6968365,6.39534884 3.46153846,6.39534884 Z" id="Rectangle-8-Copy-2" transform="translate(3.461538, 9.767442) rotate(-90.000000) translate(-3.461538, -9.767442) "></path>
</g>
<polyline id="Path-3" stroke="#FFFFFF" stroke-width="3" stroke-linecap="round" stroke-linejoin="round" transform="translate(20.035661, 9.120533) rotate(12.000000) translate(-20.035661, -9.120533) " points="24.9051805 0.892945787 16.5744242 8.92547897 21.8669212 13.2194151 15.1661414 17.3481207"></polyline>
<ellipse id="Oval-3" fill="#FFFFFF" cx="10.3846154" cy="19.5581395" rx="2.76923077" ry="2.69767442"></ellipse>
</g>
</g>
</g>
</svg>
