<?xml version="1.0" encoding="UTF-8"?>
<svg width="24px" height="28px" viewBox="0 0 24 28" version="1.1" xmlns="http://www.w3.org/2000/svg" xmlns:xlink="http://www.w3.org/1999/xlink">
    <!-- Generator: Sketch 63 (92445) - https://sketch.com -->
    <title>icon-3d打印</title>
    <desc>Created with Sketch.</desc>
    <defs>
        <path d="M11.7148421,0.532448513 L1.11757895,6.44608696 C0.808736842,6.61716247 0.617368421,6.94585812 0.617368421,7.30338673 L0.617368421,7.30338673 L0.617368421,20.4348741 C0.617368421,20.7924027 0.808736842,21.1210984 1.11757895,21.2921739 L1.11757895,21.2921739 L11.7148421,27.2058124 C12.0047368,27.3672769 12.3552632,27.3672769 12.6461053,27.2058124 L12.6461053,27.2058124 L23.2424211,21.2921739 C23.5512632,21.1210984 23.7426316,20.7924027 23.7426316,20.4348741 L23.7426316,20.4348741 L23.7426316,7.30242563 C23.7426316,7.07560641 23.664,6.85551487 23.5209474,6.67963387 L23.5209474,6.67963387 L23.5711579,6.58352403 L12.9729474,0.669885584 L12.8621053,0.617025172 C12.8166316,0.598764302 12.7702105,0.583386728 12.7218947,0.572814645 L12.7218947,0.572814645 L12.6442105,0.532448513 C12.4992632,0.451716247 12.3401053,0.411350114 12.1790526,0.411350114 L12.1790526,0.411350114 C12.0198947,0.411350114 11.8597895,0.451716247 11.7148421,0.532448513 L11.7148421,0.532448513 Z M3.83178947,7.48695652 L12.4661053,2.66800915 L20.4855789,7.1428833 L11.8503158,11.9618307 L3.83178947,7.48695652 Z M13.3727368,13.3458124 L21.81,8.63643021 L21.8109474,19.8562929 L13.3727368,24.5637529 L13.3727368,13.3458124 Z M2.54526316,19.8562929 L2.54526316,9.0026087 L11.3851579,13.9368879 L11.4429474,13.9628375 L11.4429474,24.8203661 L2.54526316,19.8562929 Z" id="path-1"></path>
    </defs>
    <g id="3D打印区（第一版）" stroke="none" stroke-width="1" fill="none" fill-rule="evenodd">
        <g id="MOOZ——工作区备份-2" transform="translate(-38.000000, -246.000000)">
            <g id="编组-12" transform="translate(31.000000, 241.000000)">
                <g id="icon-3d打印" transform="translate(7.000000, 5.000000)">
                    <g id="编组">
                        <mask id="mask-2" fill="white">
                            <use xlink:href="#path-1"></use>
                        </mask>
                        <g id="Clip-8"></g>
                        <polygon id="Fill-7" fill="#FFFFFF" mask="url(#mask-2)" points="-11.4814737 41.3041648 35.5449474 41.3041648 35.5449474 -5.8194508 -11.4814737 -5.8194508"></polygon>
                    </g>
                    <g id="编组-8" transform="translate(3.600000, 11.318535)" fill="#FFFFFF">
                        <path d="M14.1136737,7.7041968 L12.9076737,8.38657666 L12.8982,3.41769794 L14.1127263,2.70264073 L14.1136737,2.70167963 C15.4816737,1.92030664 16.1164105,2.49600458 16.1164105,4.2807643 C16.1164105,5.94538673 15.2846211,6.94300686 14.1136737,7.7041968 M13.9696737,1.30232037 L11.8579895,2.48543249 L11.9442,10.1165538 L13.9706211,9.03916247 C16.2907263,7.80799542 17.4540947,5.88195423 17.4540947,3.38502059 C17.4540947,0.887125858 16.2907263,0.193212815 13.9696737,1.30232037" id="Fill-1" stroke="#FFFFFF" stroke-width="0.2" stroke-linecap="round" stroke-linejoin="round"></path>
                        <path d="M3.0288,4.84156522 C3.0288,5.32019222 3.96858947,4.72527231 3.96858947,3.88527231 C3.96858947,3.28362471 3.49964211,3.12312128 3.14248421,2.87996339 C2.78722105,2.75694279 2.29269474,3.052 2.17143158,3.530627 L1.16058947,2.87996339 C1.28090526,1.5546087 2.23016842,0.793418764 3.41532632,1.39410526 C4.49532632,1.83428833 5.50995789,3.03470023 5.50995789,4.11497483 C5.50995789,5.07799542 4.49532632,5.68829291 4.49532632,5.5710389 C4.88564211,6.4129611 5.50995789,6.72724027 5.31858947,8.24673684 C5.19922105,9.32701144 4.02164211,10.0228467 3.0288,9.42888787 C2.17143158,9.04540961 1.68069474,8.87913959 0.932273684,6.72724027 L2.17143158,6.72724027 C2.49827368,7.44614188 2.70669474,7.74984897 3.21353684,8.05451716 C3.56974737,8.29383066 3.96858947,8.28710297 3.96858947,7.68545538 C3.96385263,6.71859039 3.0288,6.17941419 3.0288,5.70078719 L3.0288,4.84156522 Z" id="Fill-9"></path>
                    </g>
                </g>
            </g>
        </g>
    </g>
</svg>