<?xml version="1.0" encoding="UTF-8"?>
<svg width="16px" height="14px" viewBox="0 0 16 14" version="1.1" xmlns="http://www.w3.org/2000/svg" xmlns:xlink="http://www.w3.org/1999/xlink">
    <!-- Generator: Sketch 63 (92445) - https://sketch.com -->
    <title>icon/下载模型</title>
    <desc>Created with Sketch.</desc>
    <g id="文件管理" stroke="none" stroke-width="1" fill="none" fill-rule="evenodd">
        <g id="文件管理（缩略图状态）默认不选中任何文件" transform="translate(-130.000000, -119.000000)">
            <g id="编组-20" transform="translate(114.000000, 110.000000)">
                <g id="Group-3">
                    <g id="icon/下载模型" transform="translate(16.000000, 8.000000)">
                        <rect id="矩形" x="0" y="0" width="16" height="16"></rect>
                        <path d="M7.48028809,1 L8.51972759,1 C8.85109844,1 9.11972759,1.26862915 9.11972759,1.6 L9.11972759,6.77500162 L9.11972759,6.77500162 L11.1045291,6.77500162 C11.4359,6.77500162 11.7045291,7.04363077 11.7045291,7.37500162 C11.7045291,7.52858037 11.6456375,7.67631227 11.5399827,7.78777296 L8.45453532,11.0427691 C8.226568,11.2832635 7.84680477,11.2934187 7.60631039,11.0654513 C7.59922943,11.0587392 7.59231324,11.0518554 7.585568,11.044806 L4.47102058,7.78980982 C4.24192834,7.5503868 4.25030309,7.17058013 4.48972612,6.94148789 C4.60139284,6.83463944 4.7499832,6.77500162 4.90453432,6.77500162 L6.88027241,6.77500162 L6.88027241,6.77500162 L6.88028647,1.6 C6.88028899,1.26862979 7.14891788,1.00000163 7.48028809,1 Z M0.8,7 L1.7,7 C1.86568542,7 2,7.13431458 2,7.3 L2,14.5 L2,14.5 L0.8,14.5 C0.634314575,14.5 0.5,14.3656854 0.5,14.2 L0.5,7.3 C0.5,7.13431458 0.634314575,7 0.8,7 Z M14.3,7 L15.2,7 C15.3656854,7 15.5,7.13431458 15.5,7.3 L15.5,14.2 C15.5,14.3656854 15.3656854,14.5 15.2,14.5 L14,14.5 L14,14.5 L14,7.3 C14,7.13431458 14.1343146,7 14.3,7 Z M15.5,13 L15.5,14.2 C15.5,14.3656854 15.3656854,14.5 15.2,14.5 L0.8,14.5 C0.634314575,14.5 0.5,14.3656854 0.5,14.2 L0.5,13 L0.5,13 L15.5,13 Z" id="icon-下载" fill="#F9FCFF" fill-rule="nonzero"></path>
                    </g>
                </g>
            </g>
        </g>
    </g>
</svg>