<?xml version="1.0" encoding="UTF-8"?>
<svg width="30px" height="22px" viewBox="0 0 30 22" version="1.1" xmlns="http://www.w3.org/2000/svg" xmlns:xlink="http://www.w3.org/1999/xlink">
    <!-- Generator: Sketch 63 (92445) - https://sketch.com -->
    <title>icon-剩余耗材</title>
    <desc>Created with Sketch.</desc>
    <g id="3D打印区（第一版）" stroke="none" stroke-width="1" fill="none" fill-rule="evenodd">
        <g id="MOOZ——工作区" transform="translate(-944.000000, -828.000000)" fill-rule="nonzero">
            <g id="编组-2" transform="translate(944.000000, 828.000000)">
                <g id="编组-6">
                    <g id="icon-剩余耗材">
                        <path d="M14.5972361,0.091707847 L14.5972364,0.091707847 C13.2581653,0.0913463966 11.932131,0.354730557 10.6948443,0.866822402 L10.6948443,0.866822401 C11.9117078,0.893427092 13.1119081,1.15540215 14.2291828,1.63828424 C14.3522751,1.63219057 14.4729302,1.61878444 14.5972411,1.61878444 C19.4136998,1.61878444 23.3331419,5.53824368 23.3331419,10.3546852 C23.3331419,15.171144 19.4136826,19.090586 14.5972411,19.090586 C14.4729298,19.090586 14.3522751,19.0771799 14.2304014,19.0723049 L14.2304017,19.0723048 C13.1123578,19.553955 11.9119256,19.815476 10.6948443,19.8425463 L10.6948443,19.8425465 C11.931958,20.3552244 13.2581084,20.6186318 14.5972439,20.6176676 C20.2558481,20.6176676 24.8602129,16.0157065 24.8602129,10.354696 C24.8602129,4.69488861 20.2558052,0.091707847 14.5972439,0.091707847 L14.5972361,0.091707847 Z" id="路径" fill="#3282FF"></path>
                        <path d="M12.3913038,0.39639998 C11.2481275,0.39639998 10.1500469,0.601147601 9.12386482,0.959454541 L9.12386482,0.959454665 C9.56615165,0.89365955 10.0124686,0.858638259 10.4596019,0.85464345 C11.5735294,0.85464345 12.6350478,1.05695388 13.6270986,1.40794839 C18.0304123,2.01244206 21.4343147,5.78930505 21.4343147,10.3546971 C21.4343147,14.9200891 18.0303822,18.6969607 13.6270986,19.3014458 L13.6270985,19.3014458 C12.6107317,19.6658706 11.5393261,19.8530277 10.4596018,19.8547507 C10.0050134,19.8547507 9.56139492,19.812095 9.12386482,19.7499395 L9.12386482,19.7499394 C10.1736485,20.1196933 11.2783033,20.3096381 12.3912983,20.311778 C17.8829258,20.311778 22.3508216,15.8463314 22.3508216,10.3547039 C22.3508216,4.86427952 17.8829258,0.39639998 12.3912983,0.39639998 L12.3913038,0.39639998 Z" id="路径" fill="#F15A25"></path>
                        <path d="M10.4596414,14.7129166 L10.4596415,14.7129166 C8.05406327,14.7095602 6.10479655,12.7602898 6.10144486,10.3547202 L6.10144486,10.3548285 C6.10407174,7.94897528 8.05368502,5.99925309 10.4595554,5.99650309 L10.4595554,5.99650309 C12.8656879,5.99851913 14.8157324,7.94857137 14.817752,10.3546996 L14.817752,10.3545911 C14.8151252,12.7604443 12.8655119,14.7101665 10.4596415,14.7129166 L10.4596414,14.7129166 Z M10.4596414,7.52238874 C8.89965913,7.52238874 7.62851741,8.79353045 7.62851741,10.3547331 C7.62851741,11.9159357 8.89965913,13.185857 10.4596414,13.185857 C12.020844,13.185857 13.2919857,11.9159314 13.2919857,10.3547331 C13.2919857,8.79353045 12.020844,7.52238874 10.4596414,7.52238874 L10.4596414,7.52238874 Z" id="形状" fill="#3282FF"></path>
                        <path d="M20.0815589,21.9070971 L20.081559,21.9070971 C19.774827,21.9072126 19.4701559,21.8569828 19.1796954,21.7584111 C17.3552445,21.1307615 16.5289415,18.7079142 17.3357452,16.3581782 L17.3357452,16.3581783 C17.4395402,16.059332 17.7647865,15.8999719 18.0645476,16.0010882 L18.0645476,16.0010882 C18.3632229,16.1043148 18.5222899,16.4295344 18.4204186,16.7286746 C17.8171453,18.4812173 18.325357,20.2544795 19.552625,20.6749421 C20.7506424,21.0856564 22.2058152,20.0606988 22.8310284,18.3739672 L22.8688093,18.2374686 C23.6780493,15.8865253 25.8205897,14.4886342 27.6450492,15.1126271 C28.559103,15.4282798 29.2476866,16.1851154 29.5877159,17.2429772 C29.9058062,18.241121 29.8692441,19.4037965 29.4877795,20.5140674 L29.4877795,20.5140674 C29.3707892,20.8079924 29.037677,20.9514253 28.7437533,20.8344354 C28.4695719,20.7253037 28.3231729,20.4257252 28.4055433,20.1423542 C28.7077901,19.2612059 28.739477,18.356906 28.4957296,17.5903211 C28.2714819,16.8834543 27.8351746,16.3898674 27.273336,16.1948664 C26.0740983,15.7804959 24.6189255,16.81033 23.9937166,18.4958413 L23.954717,18.6311213 C23.277099,20.6042572 21.6622714,21.9070971 20.0815738,21.9070971 L20.0815589,21.9070971 Z" id="路径" fill="#F15A25"></path>
                        <path d="M10.4596414,20.6176891 C4.80103717,20.6176891 0.197875563,16.0157307 0.197875563,10.3547202 C0.197875563,4.69491279 4.80103717,0.091751188 10.4596414,0.091751188 C16.1194488,0.091751188 20.7226104,4.69491279 20.7226104,10.3547202 C20.7226104,16.0157307 16.1182027,20.6176891 10.4596414,20.6176891 Z M10.4596414,1.61881937 C5.64318268,1.61881937 1.72374062,5.53827862 1.72374062,10.3547202 C1.72374062,15.1711789 5.64441589,19.090621 10.4596414,19.090621 C15.2773033,19.090621 19.1955422,15.1711617 19.1955422,10.3547202 C19.1955422,5.53826143 15.2773033,1.61881937 10.4596414,1.61881937 Z" id="形状" fill="#3282FF"></path>
                    </g>
                </g>
            </g>
        </g>
    </g>
</svg>