<?xml version="1.0" encoding="UTF-8"?>
<svg width="28px" height="20px" viewBox="0 0 28 20" version="1.1" xmlns="http://www.w3.org/2000/svg" xmlns:xlink="http://www.w3.org/1999/xlink">
    <!-- Generator: Sketch 63 (92445) - https://sketch.com -->
    <title>icon-旋转</title>
    <desc>Created with Sketch.</desc>
    <g id="3D打印区（第一版）" stroke="none" stroke-width="1" fill="none" fill-rule="evenodd">
        <g id="状态备份" transform="translate(-170.000000, -691.000000)">
            <g id="icon-旋转" transform="translate(167.000000, 684.000000)">
                <rect id="矩形备份-3" x="0" y="0" width="34" height="34" rx="4"></rect>
                <path d="M26.6893341,18.9213706 L26.6893341,15.0781392 C28.0788231,15.7546263 28.7940231,16.4806245 28.7940231,16.9997549 C28.7940231,17.5198657 28.0788231,18.2448835 26.6893341,18.9213706 L26.6893341,18.9213706 Z M25.2106299,25.5293757 L8.06209736,25.5293757 L8.06209736,21.06358 C10.4088009,21.79399 13.3908544,22.2302753 16.6385817,22.2302753 C16.761807,22.2302753 16.8850324,22.2302753 17.0038216,22.2253732 L17.0038216,23.5685433 C17.0038216,23.9513959 17.4222949,24.1862055 17.7476098,23.9906125 L21.1782036,21.9317385 L21.2674187,21.8773254 C21.5873117,21.6866345 21.5828756,21.2253487 21.2619968,21.0346577 L20.4294863,20.5488615 L17.7431737,18.9801956 C17.4173659,18.7890144 17.0038216,19.0243143 17.0038216,19.4066766 L17.0038216,20.7547489 C16.8850324,20.759651 16.761807,20.759651 16.6385817,20.759651 C12.9861823,20.759651 10.1032021,20.2204221 8.06209736,19.5199147 L8.06209736,8.47062428 L25.2106299,8.47062428 L25.2106299,25.5293757 Z M4.4787042,16.9997549 C4.4787042,16.4806245 5.19834024,15.7546263 6.58339317,15.0835315 L6.58339317,18.9164685 C5.19834024,18.2448835 4.4787042,17.5198657 4.4787042,16.9997549 L4.4787042,16.9997549 Z M26.6893341,13.4653545 L26.6893341,7.98041619 C26.6893341,7.44069708 26.250159,7 25.7035313,7 L7.56919596,7 C7.02700442,7 6.58339317,7.44069708 6.58339317,7.98041619 L6.58339317,13.4702566 C4.36040786,14.3972401 3,15.6369764 3,16.9997549 C3,18.3625334 4.36040786,19.6032501 6.58339317,20.5292532 L6.58339317,26.0195838 C6.58339317,26.5588127 7.02700442,27 7.56919596,27 L25.7035313,27 C26.250159,27 26.6893341,26.5588127 26.6893341,26.0195838 L26.6893341,20.5341552 C28.9172484,19.6032501 30.2727273,18.3625334 30.2727273,16.9997549 C30.2727273,15.6369764 28.9172484,14.3972401 26.6893341,13.4653545 L26.6893341,13.4653545 Z" id="Fill-1" fill="#3282FF"></path>
            </g>
        </g>
    </g>
</svg>