<?xml version="1.0" encoding="UTF-8"?>
<svg width="16px" height="16px" viewBox="0 0 16 16" version="1.1" xmlns="http://www.w3.org/2000/svg" xmlns:xlink="http://www.w3.org/1999/xlink">
    <!-- Generator: Sketch 63 (92445) - https://sketch.com -->
    <title>icon-走线</title>
    <desc>Created with Sketch.</desc>
    <g id="3D打印区（第一版）" stroke="none" stroke-width="1" fill="none" fill-rule="evenodd" opacity="0.8">
        <g id="状态备份" transform="translate(-86.000000, -622.000000)" fill="#3282FF" fill-rule="nonzero">
            <g id="编组-23" transform="translate(76.000000, 616.000000)">
                <g id="icon-走线" transform="translate(10.000000, 6.000000)">
                    <path d="M2.35741498,2.35746181 L0,2.35746181 L0,2.35746216 C0,3.65942264 1.05544826,4.71486153 2.35741498,4.71486153 C3.65937546,4.71486153 4.71481435,3.65941328 4.71481435,2.35744655 L4.71481435,2.35744655 C4.71481435,1.05548608 3.65936765,4.71851948e-05 2.35739937,4.71851948e-05 C1.05543889,4.71851948e-05 0,1.05549388 0,2.35744655 L2.35741498,2.35746181 Z M15.798639,13.1056457 L15.798639,13.1056457 C15.5585736,12.8651136 15.1689731,12.8647358 14.928441,13.1048017 C14.9281594,13.1050828 14.9278781,13.1053641 14.927597,13.1056457 L14.0885201,13.9447226 L14.0885201,0.623381411 L14.0885201,0.623381687 C14.0929337,0.28357626 13.8210456,0.00453176755 13.4812401,1.26049089e-05 C13.4785593,1.26049089e-05 13.4758782,1.26049089e-05 13.473197,1.26049089e-05 L7.99122614,1.26049089e-05 L7.99122615,1.26049089e-05 C7.65583516,-0.00437584772 7.38034501,0.263910721 7.37590247,0.599301711 C7.37583143,0.604664471 7.37583143,0.610027932 7.37590247,0.615390676 L7.37590247,14.7518415 L2.97275231,14.7518415 L2.97275231,6.12133814 L2.97275231,6.12133814 C2.97275231,5.78150462 2.69726215,5.50601446 2.35742863,5.50601446 C2.0175951,5.50601446 1.7420227,5.78150462 1.7420227,6.12133814 L1.7420227,15.3671621 L1.7420227,15.3671622 C1.73664116,15.7025376 2.00408799,15.9788426 2.33946337,15.9843866 C2.35878839,15.9846208 2.37811731,15.984013 2.39738442,15.9824846 L7.99123036,15.9824846 L7.99123034,15.9824846 C8.33106386,15.9824846 8.60655402,15.7069944 8.60655402,15.3671609 C8.60655402,15.3671609 8.60655402,15.3671609 8.60655402,15.3671609 L8.60655402,1.23870224 L12.8498916,1.23870224 L12.8498916,13.9447228 L11.9868413,13.105646 L11.9868413,13.105646 C11.682406,12.9546304 11.3131887,13.0790022 11.1621738,13.3834386 C11.0683968,13.5724866 11.0780391,13.7964022 11.1877204,13.9766885 L12.9697601,15.7587283 L12.9697601,15.7587283 C13.1158995,15.8996254 13.3101837,15.9796249 13.5131619,15.9824815 L13.5131619,15.9824815 C13.7149476,15.9854197 13.9088815,15.9043731 14.0485731,15.7587283 L15.838605,13.9766885 L15.838605,13.9766885 C16.0681479,13.7260944 16.0510833,13.3368685 15.8004891,13.1073256 C15.7998769,13.1067648 15.7992635,13.1062052 15.798649,13.1056469 L15.798639,13.1056457 Z" id="形状"></path>
                </g>
            </g>
        </g>
    </g>
</svg>