<?xml version="1.0" encoding="UTF-8"?>
<svg width="24px" height="21px" viewBox="0 0 24 21" version="1.1" xmlns="http://www.w3.org/2000/svg" xmlns:xlink="http://www.w3.org/1999/xlink">
    <!-- Generator: Sketch 63 (92445) - https://sketch.com -->
    <title>icon-平移</title>
    <desc>Created with Sketch.</desc>
    <g id="3D打印区（第一版）" stroke="none" stroke-width="1" fill="none" fill-rule="evenodd">
        <g id="状态备份" transform="translate(-87.000000, -691.000000)">
            <g id="icon-平移" transform="translate(75.000000, 676.000000)">
                <rect id="矩形" x="0" y="0" width="50" height="50" rx="4"></rect>
                <path d="M33.9889124,33.7518012 L16.4648296,33.7518012 L16.4648296,25.7006456 L22.2271103,25.7006456 L22.2271103,27.2285297 C22.2271103,27.6154614 22.6557555,27.8530771 22.9932317,27.64969 L26.5845832,25.516605 C26.9114818,25.3236352 26.9064449,24.8568368 26.5790426,24.6638671 L22.9876911,22.5848533 C22.6502148,22.3918835 22.2271103,22.6294993 22.2271103,23.0119664 L22.2271103,24.5398505 L16.4648296,24.5398505 L16.4648296,16.4881988 L33.9889124,16.4881988 L33.9889124,33.7518012 Z M15.9611338,15 C15.4070683,15 14.9537421,15.4469557 14.9537421,15.9921325 L14.9537421,24.5398505 L13.0036959,24.5398505 C12.7261594,24.5398505 12.5,24.7576236 12.5,25.0359168 L12.5,25.2045793 C12.5,25.4818803 12.7261594,25.7006456 13.0036959,25.7006456 L14.9537421,25.7006456 L14.9537421,34.2478675 C14.9537421,34.7935404 15.4070683,35.24 15.9611338,35.24 L34.4926083,35.24 C35.051207,35.24 35.5,34.7935404 35.5,34.2478675 L35.5,15.9921325 C35.5,15.4469557 35.051207,15 34.4926083,15 L15.9611338,15 Z" id="Fill-1" fill="#3282FF"></path>
            </g>
        </g>
    </g>
</svg>