<?xml version="1.0" encoding="UTF-8"?>
<svg width="24px" height="20px" viewBox="0 0 24 20" version="1.1" xmlns="http://www.w3.org/2000/svg" xmlns:xlink="http://www.w3.org/1999/xlink">
    <!-- Generator: Sketch 63 (92445) - https://sketch.com -->
    <title>icon-缩放</title>
    <desc>Created with Sketch.</desc>
    <g id="3D打印区（第一版）" stroke="none" stroke-width="1" fill="none" fill-rule="evenodd">
        <g id="状态备份" transform="translate(-130.000000, -691.000000)">
            <g id="icon-缩放" transform="translate(125.000000, 684.000000)">
                <rect id="矩形备份-2" x="0" y="0" width="34" height="34" rx="4"></rect>
                <g id="编组-5" transform="translate(5.500000, 7.000000)" fill="#3282FF">
                    <path d="M21.7522598,0 L3.81592202,0 C3.27771488,0 2.84090909,0.439301824 2.84090909,0.980584428 L2.84090909,19.0194156 C2.84090909,19.5606982 3.27771488,20 3.81592202,20 L21.7522598,20 C22.2904669,20 22.7272727,19.5606982 22.7272727,19.0194156 L22.7272727,0.980584428 C22.7272727,0.439301824 22.2904669,0 21.7522598,0 L21.7522598,0 Z M4.30342848,18.5291234 L21.2647533,18.5291234 L21.2647533,1.47087664 L4.30342848,1.47087664 L4.30342848,18.5291234 Z" id="Fill-1"></path>
                    <path d="M10.5240312,20 L0.839605184,20 C0.37572332,20 0,19.6217075 0,19.1555971 L0,9.4158315 C0,8.94929888 0.37572332,8.57142857 0.839605184,8.57142857 L10.5240312,8.57142857 C10.9874932,8.57142857 11.3636364,8.94929888 11.3636364,9.4158315 L11.3636364,19.1555971 C11.3636364,19.6217075 10.9874932,20 10.5240312,20" id="Fill-3"></path>
                </g>
            </g>
        </g>
    </g>
</svg>