<?xml version="1.0" encoding="UTF-8"?>
<svg width="23px" height="23px" viewBox="0 0 23 23" version="1.1" xmlns="http://www.w3.org/2000/svg" xmlns:xlink="http://www.w3.org/1999/xlink">
    <!-- Generator: Sketch 63 (92445) - https://sketch.com -->
    <title>编组 4</title>
    <desc>Created with Sketch.</desc>
    <g id="3D打印区（第一版）" stroke="none" stroke-width="1" fill="none" fill-rule="evenodd">
        <g id="MOOZ——工作区" transform="translate(-791.000000, -828.000000)" fill-rule="nonzero">
            <g id="编组-7" transform="translate(791.000000, 827.000000)">
                <g id="编组-4" transform="translate(0.000000, 1.000000)">
                    <path d="M11.4907823,0.800011617 C8.53940456,0.802632427 5.86815426,1.99976831 3.93396131,3.93396126 C1.99764102,5.87028154 0.8,8.54528136 0.8,11.5 C0.8,14.4054661 1.95803298,17.0404724 3.83775236,18.968599 C5.72506345,20.9045128 8.34048747,22.1219449 11.5092177,22.1999884 C14.4605955,22.1973676 17.1318458,21.0002317 19.0660387,19.0660387 C21.002359,17.1297184 22.2,14.4547186 22.2,11.5 C22.2,8.59453387 21.041967,5.95952761 19.1622476,4.03140102 C17.2749365,2.09548723 14.6595125,0.878055133 11.4907823,0.800011617 Z" id="路径" stroke="#3282FF" stroke-width="1.6"></path>
                    <polygon id="路径" fill="#F15A25" points="11.1166667 12.4 17.25 12.4 17.25 14 9.58333333 14 9.58333333 6 11.1166667 6"></polygon>
                </g>
            </g>
        </g>
    </g>
</svg>