<?xml version="1.0" encoding="UTF-8"?>
<svg width="236px" height="236px" viewBox="0 0 236 236" version="1.1" xmlns="http://www.w3.org/2000/svg" xmlns:xlink="http://www.w3.org/1999/xlink">
    <title>矩形</title>
    <defs>
        <rect id="path-1" x="98" y="98" width="960" height="760" rx="4"></rect>
        <filter x="-1.7%" y="-1.8%" width="103.3%" height="104.2%" filterUnits="objectBoundingBox" id="filter-2">
            <feOffset dx="0" dy="2" in="SourceAlpha" result="shadowOffsetOuter1"></feOffset>
            <feGaussianBlur stdDeviation="5" in="shadowOffsetOuter1" result="shadowBlurOuter1"></feGaussianBlur>
            <feColorMatrix values="0 0 0 0 0   0 0 0 0 0   0 0 0 0 0  0 0 0 0.08 0" type="matrix" in="shadowBlurOuter1"></feColorMatrix>
        </filter>
        <path d="M0,2.00073873 C0,0.895761241 0.901705894,0 1.99900772,0 L590.000992,0 C591.105014,0 592,0.897167931 592,2.00073873 L592,443.999261 C592,445.104239 591.098294,446 590.000992,446 L1.99900772,446 C0.89498624,446 0,445.102832 0,443.999261 L0,2.00073873 Z" id="path-3"></path>
        <filter x="-17.2%" y="-20.2%" width="134.5%" height="145.7%" filterUnits="objectBoundingBox" id="filter-4">
            <feMorphology radius="8" operator="dilate" in="SourceAlpha" result="shadowSpreadOuter1"></feMorphology>
            <feOffset dx="0" dy="12" in="shadowSpreadOuter1" result="shadowOffsetOuter1"></feOffset>
            <feGaussianBlur stdDeviation="24" in="shadowOffsetOuter1" result="shadowBlurOuter1"></feGaussianBlur>
            <feColorMatrix values="0 0 0 0 0   0 0 0 0 0   0 0 0 0 0  0 0 0 0.03 0" type="matrix" in="shadowBlurOuter1" result="shadowMatrixOuter1"></feColorMatrix>
            <feOffset dx="0" dy="9" in="SourceAlpha" result="shadowOffsetOuter2"></feOffset>
            <feGaussianBlur stdDeviation="14" in="shadowOffsetOuter2" result="shadowBlurOuter2"></feGaussianBlur>
            <feColorMatrix values="0 0 0 0 0   0 0 0 0 0   0 0 0 0 0  0 0 0 0.05 0" type="matrix" in="shadowBlurOuter2" result="shadowMatrixOuter2"></feColorMatrix>
            <feMorphology radius="4" operator="erode" in="SourceAlpha" result="shadowSpreadOuter3"></feMorphology>
            <feOffset dx="0" dy="6" in="shadowSpreadOuter3" result="shadowOffsetOuter3"></feOffset>
            <feGaussianBlur stdDeviation="8" in="shadowOffsetOuter3" result="shadowBlurOuter3"></feGaussianBlur>
            <feColorMatrix values="0 0 0 0 0   0 0 0 0 0   0 0 0 0 0  0 0 0 0.08 0" type="matrix" in="shadowBlurOuter3" result="shadowMatrixOuter3"></feColorMatrix>
            <feMerge>
                <feMergeNode in="shadowMatrixOuter1"></feMergeNode>
                <feMergeNode in="shadowMatrixOuter2"></feMergeNode>
                <feMergeNode in="shadowMatrixOuter3"></feMergeNode>
            </feMerge>
        </filter>
    </defs>
    <g id="Page-1" stroke="none" stroke-width="1" fill="none" fill-rule="evenodd">
        <g id="MOOZ——激光测试备份-3" transform="translate(-461.000000, -317.000000)">
            <g id="编组-20" transform="translate(461.000000, 317.000000)">
                <rect id="矩形" fill="#333333" x="0" y="0" width="236" height="236" rx="2"></rect>
                <g id="网格" transform="translate(22.000000, 22.000000)" fill="#000000" stroke="#C7C7C7" stroke-linecap="square" stroke-width="0.4">
                    <line x1="1.05434783" y1="8.96195652" x2="192.945652" y2="8.96195652" id="Line-7"></line>
                    <line x1="1.05434783" y1="0.527173913" x2="192.945652" y2="0.527173913" id="Line-7-Copy-20"></line>
                    <line x1="1.05434783" y1="88.0380435" x2="192.945652" y2="88.0380435" id="Line-7-Copy-8"></line>
                    <line x1="1.05434783" y1="49.0271739" x2="192.945652" y2="49.0271739" id="Line-7-Copy-4"></line>
                    <line x1="1.05434783" y1="127.048913" x2="192.945652" y2="127.048913" id="Line-7-Copy-9"></line>
                    <line x1="1.05434783" y1="163.951087" x2="192.945652" y2="163.951087" id="Line-7-Copy-16"></line>
                    <line x1="1.05434783" y1="30.048913" x2="192.945652" y2="30.048913" id="Line-7-Copy-2"></line>
                    <line x1="1.05434783" y1="105.961957" x2="192.945652" y2="105.961957" id="Line-7-Copy-10"></line>
                    <line x1="1.05434783" y1="66.951087" x2="192.945652" y2="66.951087" id="Line-7-Copy-5"></line>
                    <line x1="1.05434783" y1="146.027174" x2="192.945652" y2="146.027174" id="Line-7-Copy-11"></line>
                    <line x1="1.05434783" y1="185.038043" x2="192.945652" y2="185.038043" id="Line-7-Copy-17"></line>
                    <line x1="1.05434783" y1="19.5054348" x2="192.945652" y2="19.5054348" id="Line-7-Copy"></line>
                    <line x1="1.05434783" y1="96.4728261" x2="192.945652" y2="96.4728261" id="Line-7-Copy-12"></line>
                    <line x1="1.05434783" y1="58.5163043" x2="192.945652" y2="58.5163043" id="Line-7-Copy-6"></line>
                    <line x1="1.05434783" y1="135.483696" x2="192.945652" y2="135.483696" id="Line-7-Copy-13"></line>
                    <line x1="1.05434783" y1="174.494565" x2="192.945652" y2="174.494565" id="Line-7-Copy-18"></line>
                    <line x1="1.05434783" y1="38.4836957" x2="192.945652" y2="38.4836957" id="Line-7-Copy-3"></line>
                    <line x1="1.05434783" y1="116.505435" x2="192.945652" y2="116.505435" id="Line-7-Copy-14"></line>
                    <line x1="1.05434783" y1="77.4945652" x2="192.945652" y2="77.4945652" id="Line-7-Copy-7"></line>
                    <line x1="1.05434783" y1="155.516304" x2="192.945652" y2="155.516304" id="Line-7-Copy-15"></line>
                    <line x1="1.05434783" y1="193.472826" x2="192.945652" y2="193.472826" id="Line-7-Copy-19"></line>
                    <line x1="8.96195652" y1="1.05434783" x2="8.96195652" y2="192.945652" id="Line-8"></line>
                    <line x1="0.527173913" y1="1.05434783" x2="0.527173913" y2="192.945652" id="Line-8-Copy-20"></line>
                    <line x1="30.048913" y1="1.05434783" x2="30.048913" y2="192.945652" id="Line-8-Copy-2"></line>
                    <line x1="116.505435" y1="1.05434783" x2="116.505435" y2="192.945652" id="Line-8-Copy-10"></line>
                    <line x1="49.0271739" y1="1.05434783" x2="49.0271739" y2="192.945652" id="Line-8-Copy-4"></line>
                    <line x1="135.483696" y1="1.05434783" x2="135.483696" y2="192.945652" id="Line-8-Copy-11"></line>
                    <line x1="66.951087" y1="1.05434783" x2="66.951087" y2="192.945652" id="Line-8-Copy-6"></line>
                    <line x1="155.516304" y1="1.05434783" x2="155.516304" y2="192.945652" id="Line-8-Copy-12"></line>
                    <line x1="88.0380435" y1="1.05434783" x2="88.0380435" y2="192.945652" id="Line-8-Copy-8"></line>
                    <line x1="174.494565" y1="1.05434783" x2="174.494565" y2="192.945652" id="Line-8-Copy-13"></line>
                    <line x1="19.5054348" y1="1.05434783" x2="19.5054348" y2="192.945652" id="Line-8-Copy"></line>
                    <line x1="105.961957" y1="1.05434783" x2="105.961957" y2="192.945652" id="Line-8-Copy-14"></line>
                    <line x1="38.4836957" y1="1.05434783" x2="38.4836957" y2="192.945652" id="Line-8-Copy-3"></line>
                    <line x1="127.048913" y1="1.05434783" x2="127.048913" y2="192.945652" id="Line-8-Copy-15"></line>
                    <line x1="58.5163043" y1="1.05434783" x2="58.5163043" y2="192.945652" id="Line-8-Copy-5"></line>
                    <line x1="146.027174" y1="1.05434783" x2="146.027174" y2="192.945652" id="Line-8-Copy-16"></line>
                    <line x1="77.4945652" y1="1.05434783" x2="77.4945652" y2="192.945652" id="Line-8-Copy-7"></line>
                    <line x1="163.951087" y1="1.05434783" x2="163.951087" y2="192.945652" id="Line-8-Copy-17"></line>
                    <line x1="96.4728261" y1="1.05434783" x2="96.4728261" y2="192.945652" id="Line-8-Copy-9"></line>
                    <line x1="185.038043" y1="1.05434783" x2="185.038043" y2="192.945652" id="Line-8-Copy-18"></line>
                    <line x1="193.472826" y1="1.05434783" x2="193.472826" y2="192.945652" id="Line-8-Copy-19"></line>
                </g>
                <g id="编组-11" transform="translate(21.000000, 209.000000)" fill="#C7C7C7">
                    <rect id="矩形" x="0" y="6" width="8" height="2"></rect>
                    <rect id="矩形备份-4" transform="translate(1.000000, 4.000000) scale(-1, 1) rotate(90.000000) translate(-1.000000, -4.000000) " x="-3" y="3" width="8" height="2"></rect>
                </g>
                <g id="编组-11备份" transform="translate(213.000000, 213.000000) scale(-1, 1) translate(-213.000000, -213.000000) translate(209.000000, 209.000000)" fill="#C7C7C7">
                    <rect id="矩形" x="0" y="6" width="8" height="2"></rect>
                    <rect id="矩形备份-4" transform="translate(1.000000, 4.000000) scale(-1, 1) rotate(90.000000) translate(-1.000000, -4.000000) " x="-3" y="3" width="8" height="2"></rect>
                </g>
                <g id="编组-11备份" transform="translate(213.000000, 25.000000) scale(-1, -1) translate(-213.000000, -25.000000) translate(209.000000, 21.000000)" fill="#C7C7C7">
                    <rect id="矩形" x="0" y="6" width="8" height="2"></rect>
                    <rect id="矩形备份-4" transform="translate(1.000000, 4.000000) scale(-1, 1) rotate(90.000000) translate(-1.000000, -4.000000) " x="-3" y="3" width="8" height="2"></rect>
                </g>
                <g id="编组-11备份" transform="translate(25.000000, 25.000000) scale(1, -1) translate(-25.000000, -25.000000) translate(21.000000, 21.000000)" fill="#C7C7C7">
                    <rect id="矩形" x="0" y="6" width="8" height="2"></rect>
                    <rect id="矩形备份-4" transform="translate(1.000000, 4.000000) scale(-1, 1) rotate(90.000000) translate(-1.000000, -4.000000) " x="-3" y="3" width="8" height="2"></rect>
                </g>
            </g>
            <circle id="椭圆形" stroke="#E13F2A" stroke-width="2" cx="483" cy="532" r="7"></circle>
        </g>
    </g>
</svg>
