<?xml version="1.0" encoding="UTF-8"?>
<svg width="8px" height="14px" viewBox="0 0 8 14" version="1.1" xmlns="http://www.w3.org/2000/svg" xmlns:xlink="http://www.w3.org/1999/xlink">
    <!-- Generator: Sketch 63 (92445) - https://sketch.com -->
    <title>icon/后退（disable）</title>
    <desc>Created with Sketch.</desc>
    <g id="文件管理" stroke="none" stroke-width="1" fill="none" fill-rule="evenodd">
        <g id="按钮等控件的交互样式" transform="translate(-845.000000, -560.000000)" fill="#5C5C5C" fill-rule="nonzero">
            <g id="icon/后退（disable）" transform="translate(849.000000, 567.000000) scale(-1, 1) translate(-849.000000, -567.000000) translate(845.000000, 560.000000)">
                <path d="M0.241115031,0.653343403 L0.241115029,0.653343405 C-0.0407620177,0.980722692 -0.0248248898,1.46946988 0.277781738,1.7777882 L5.48445446,6.98446093 L0.241115029,12.2644671 L0.241115058,12.264467 C0.218030758,12.2952828 0.19758795,12.3279912 0.180003971,12.3622448 L0.180003964,12.3622448 C0.136368002,12.4144883 0.099416266,12.4719688 0.070003836,12.5333561 L0.0700038322,12.5333561 C-0.0549345423,12.8383801 0.0121956139,13.1884183 0.241115047,13.4255803 L0.241115031,13.4255803 C0.563988323,13.7407593 1.07935611,13.7407593 1.40222654,13.4255803 L7.1588999,7.66890693 L7.15889991,7.6689069 C7.1652148,7.64073793 7.1652148,7.61152035 7.1588999,7.58335115 L7.15889989,7.58335116 C7.4761586,7.2705784 7.47979089,6.75983692 7.16701876,6.44258108 C7.16433177,6.43985557 7.1616254,6.43714922 7.15889989,6.43446221 L1.43889324,0.65335392 L1.43889323,0.653353915 C1.14043195,0.32259728 0.630349324,0.296414958 0.299592689,0.594875097 C0.279112699,0.613355319 0.259594179,0.632873839 0.241113871,0.653353915 L0.241115031,0.653343403 Z" id="路径"></path>
            </g>
        </g>
    </g>
</svg>