<?xml version="1.0" encoding="UTF-8"?>
<svg width="120px" height="102px" viewBox="0 0 120 102" version="1.1" xmlns="http://www.w3.org/2000/svg" xmlns:xlink="http://www.w3.org/1999/xlink">
    <!-- Generator: Sketch 63 (92445) - https://sketch.com -->
    <title>文件夹</title>
    <desc>Created with Sketch.</desc>
    <g id="文件管理" stroke="none" stroke-width="1" fill="none" fill-rule="evenodd">
        <g id="文件管理（缩略图状态）默认不选中任何文件" transform="translate(-154.000000, -254.000000)" fill-rule="nonzero">
            <g id="文件（hover状态）" transform="translate(130.000000, 226.000000)">
                <g id="编组-4" transform="translate(24.000000, 28.000000)">
                    <g id="文件夹">
                        <path d="M119.982119,83.3761353 L0,83.3761353 L0,14.3970592 L111.054128,14.3970592 C115.992252,14.3970592 120,18.2454489 120,22.9872191 L120,83.3761353 L119.982108,83.3761353 L119.982119,83.3761353 Z M74.984419,14.3970592 C74.984419,6.44257016 68.2750154,0 59.9911891,0 L0.000129571442,0 L0.000129571442,14.3970592 L74.984419,14.3970592" id="形状" fill="#E18B2A"></path>
                        <polygon id="路径" fill="#FFFFFF" points="14.516129 65.167554 14.516129 22.0419668 105.483871 22.0419668 105.483871 65.167554"></polygon>
                        <path d="M120,92.617225 L120,36.0320728 C120,32.0175905 116.635785,28.7503915 112.502176,28.7503915 L7.49775889,28.7503915 C3.36415038,28.7503915 0,32.0175905 0,36.0320728 L0,92.5998569 C0,97.5527976 4.13360851,101.584717 9.25142002,101.584717 L110.766476,101.584717 C115.866391,101.602039 120,97.5701784 120,92.6172376 L120,92.617225 Z" id="路径" fill="#FFD332"></path>
                    </g>
                </g>
            </g>
        </g>
    </g>
</svg>