<?xml version="1.0" encoding="UTF-8"?>
<svg width="104px" height="126px" viewBox="0 0 104 126" version="1.1" xmlns="http://www.w3.org/2000/svg" xmlns:xlink="http://www.w3.org/1999/xlink">
    <!-- Generator: Sketch 63 (92445) - https://sketch.com -->
    <title>未知文件</title>
    <desc>Created with Sketch.</desc>
    <defs>
        <path d="M23.9942646,0.251955008 L1.08152397,12.5557579 C0.41376485,12.9116943 0,13.5955722 0,14.3394394 L0,14.3394394 L0,41.6605606 C0,42.4044278 0.41376485,43.0883057 1.08152397,43.4442421 L1.08152397,43.4442421 L23.9942646,55.748045 C24.6210569,56.083985 25.3789431,56.083985 26.0077837,55.748045 L26.0077837,55.748045 L48.918476,43.4442421 C49.5862351,43.0883057 50,42.4044278 50,41.6605606 L50,41.6605606 L50,14.3374397 C50,13.865524 49.8299877,13.4076058 49.5206882,13.0416711 L49.5206882,13.0416711 L49.6292503,12.8417068 L26.7144613,0.537903946 L26.4748054,0.427923585 C26.376485,0.38993037 26.2761163,0.357936083 26.171651,0.335940011 L26.171651,0.335940011 L26.003687,0.251955008 C25.6902909,0.0839850027 25.3461696,0 24.9979517,0 L24.9979517,0 C24.6538304,0 24.3076608,0.0839850027 23.9942646,0.251955008 L23.9942646,0.251955008 Z M6.95002048,14.7213712 L25.6185989,4.69516158 L42.9578042,14.005499 L24.2871774,24.0317086 L6.95002048,14.7213712 Z M27.5788611,26.9111944 L45.8213847,17.1129441 L45.823433,40.4567756 L27.5788611,50.2510266 L27.5788611,26.9111944 Z M4.16837362,40.4567756 L4.16837362,17.8748081 L23.281442,28.1409748 L23.4063908,28.1949652 L23.4063908,50.7849313 L4.16837362,40.4567756 Z" id="path-1"></path>
    </defs>
    <g id="文件管理" stroke="none" stroke-width="1" fill="none" fill-rule="evenodd" opacity="0.195614769">
        <g id="文件管理——新建文件夹" transform="translate(-1252.000000, -468.000000)">
            <g id="文件下载状态" transform="translate(1220.000000, 452.000000)">
                <g id="未知文件" transform="translate(32.000000, 16.000000)">
                    <path d="M1.87612748,1.89473684 C0.625375827,3.03157895 0,4.73684211 0,6.31578947 L0,119.684211 C0,121.263158 0.625375827,122.968421 1.87612748,124.105263 C3.12687913,125.368421 4.6903187,126 6.25375827,126 L97.7462417,126 C99.3096813,126 100.998196,125.368421 102.123873,124.105263 C103.374624,122.842105 104,121.263158 104,119.684211 L104,36 L68,0 L6.25375827,0 C4.6903187,0 3.00180397,0.631578947 1.87612748,1.89473684 Z" id="路径" fill="#2A7DE1" fill-rule="nonzero"></path>
                    <g id="编组" transform="translate(27.000000, 35.000000)">
                        <mask id="mask-2" fill="white">
                            <use xlink:href="#path-1"></use>
                        </mask>
                        <g id="Clip-8"></g>
                        <polygon id="Fill-7" fill="#FFFFFF" mask="url(#mask-2)" points="-25.7142857 85.4 74.2857143 85.4 74.2857143 -12.6 -25.7142857 -12.6"></polygon>
                    </g>
                    <path d="M74.3716814,36 C72.7787611,36 71.0584071,35.3628319 69.9115044,34.0884956 C68.6371681,32.9415929 68,31.2212389 68,29.6283186 L68,-1.0658141e-14 L104,36 L74.3716814,36 Z" id="路径" fill="#5DA6FF" fill-rule="nonzero"></path>
                </g>
            </g>
        </g>
    </g>
</svg>