<?xml version="1.0" encoding="UTF-8"?>
<svg width="104px" height="126px" viewBox="0 0 104 126" version="1.1" xmlns="http://www.w3.org/2000/svg" xmlns:xlink="http://www.w3.org/1999/xlink">
    <!-- Generator: Sketch 63 (92445) - https://sketch.com -->
    <title>GCODE文件</title>
    <desc>Created with Sketch.</desc>
    <defs>
        <path d="M17.2758705,0.179967863 L0.778697255,8.9683985 C0.297910692,9.22263881 0,9.71112301 0,10.2424567 L0,10.2424567 L0,29.7575433 C0,30.288877 0.297910692,30.7773612 0.778697255,31.0316015 L0.778697255,31.0316015 L17.2758705,39.8200321 C17.727161,40.0599893 18.272839,40.0599893 18.7256043,39.8200321 L18.7256043,39.8200321 L35.2213027,31.0316015 C35.7020893,30.7773612 36,30.288877 36,29.7575433 L36,29.7575433 L36,10.2410284 C36,9.90394572 35.8775912,9.57686127 35.6548955,9.31547938 L35.6548955,9.31547938 L35.7330602,9.17264774 L19.2344121,0.384217104 L19.0618599,0.305659704 C18.9910692,0.278521693 18.9188038,0.255668631 18.8435887,0.239957151 L18.8435887,0.239957151 L18.7226546,0.179967863 C18.4970094,0.0599892876 18.2492421,0 17.9985252,0 L17.9985252,0 C17.7507579,0 17.5015158,0.0599892876 17.2758705,0.179967863 L17.2758705,0.179967863 Z M5.00401475,10.5152651 L18.4453912,3.35368684 L30.929619,10.0039279 L17.4867677,17.1655062 L5.00401475,10.5152651 Z M19.85678,19.2222817 L32.991397,12.2235315 L32.9928718,28.8976968 L19.85678,35.8935904 L19.85678,19.2222817 Z M3.001229,28.8976968 L3.001229,12.76772 L16.7626383,20.1006963 L16.8526014,20.1392608 L16.8526014,36.2749509 L3.001229,28.8976968 Z" id="path-1"></path>
    </defs>
    <g id="文件管理" stroke="none" stroke-width="1" fill="none" fill-rule="evenodd">
        <g id="文件管理（缩略图状态）默认不选中任何文件" transform="translate(-600.000000, -468.000000)">
            <g id="编组-5备份-11" transform="translate(568.000000, 452.000000)">
                <g id="GCODE文件" transform="translate(32.000000, 16.000000)">
                    <path d="M1.87612748,1.89473684 C0.625375827,3.03157895 0,4.73684211 0,6.31578947 L0,119.684211 C0,121.263158 0.625375827,122.968421 1.87612748,124.105263 C3.12687913,125.368421 4.6903187,126 6.25375827,126 L97.7462417,126 C99.3096813,126 100.998196,125.368421 102.123873,124.105263 C103.374624,122.842105 104,121.263158 104,119.684211 L104,36 L68,0 L6.25375827,0 C4.6903187,0 3.00180397,0.631578947 1.87612748,1.89473684 Z" id="路径" fill="#2A7DE1" fill-rule="nonzero"></path>
                    <g id="编组" transform="translate(34.000000, 30.000000)">
                        <mask id="mask-2" fill="white">
                            <use xlink:href="#path-1"></use>
                        </mask>
                        <g id="Clip-8"></g>
                        <polygon id="Fill-7" fill="#FFFFFF" mask="url(#mask-2)" points="-18.5142857 61 53.4857143 61 53.4857143 -9 -18.5142857 -9"></polygon>
                    </g>
                    <path d="M74.3716814,36 C72.7787611,36 71.0584071,35.3628319 69.9115044,34.0884956 C68.6371681,32.9415929 68,31.2212389 68,29.6283186 L68,-1.0658141e-14 L104,36 L74.3716814,36 Z" id="路径" fill="#5DA6FF" fill-rule="nonzero"></path>
                    <text id="GCOOE" font-family="SourceHanSansCN-Medium, Source Han Sans CN" font-size="20" font-weight="400" fill="#FFFFFF">
                        <tspan x="17.8" y="108">GCOOE</tspan>
                    </text>
                </g>
            </g>
        </g>
    </g>
</svg>