<?xml version="1.0" encoding="UTF-8"?>
<svg width="104px" height="126px" viewBox="0 0 104 126" version="1.1" xmlns="http://www.w3.org/2000/svg" xmlns:xlink="http://www.w3.org/1999/xlink">
    <!-- Generator: Sketch 63 (92445) - https://sketch.com -->
    <title>图片</title>
    <desc>Created with Sketch.</desc>
    <g id="文件管理" stroke="none" stroke-width="1" fill="none" fill-rule="evenodd">
        <g id="按钮等控件的交互样式" transform="translate(-1239.000000, -87.000000)" fill-rule="nonzero">
            <g id="图片" transform="translate(1239.000000, 87.000000)">
                <path d="M1.87612748,1.89473684 C0.625375827,3.03157895 0,4.73684211 0,6.31578947 L0,119.684211 C0,121.263158 0.625375827,122.968421 1.87612748,124.105263 C3.12687913,125.368421 4.6903187,126 6.25375827,126 L97.7462417,126 C99.3096813,126 100.998196,125.368421 102.123873,124.105263 C103.374624,122.842105 104,121.263158 104,119.684211 L104,36 L68,0 L6.25375827,0 C4.6903187,0 3.00180397,0.631578947 1.87612748,1.89473684 Z" id="路径" fill="#2A7DE1"></path>
                <g id="编组-5" transform="translate(15.000000, 37.000000)" fill="#FFFFFF">
                    <path d="M51.7935298,15.3739386 L73.2678672,50.448579 C73.8446237,51.3906117 73.5485089,52.6218337 72.6064762,53.1985902 C72.2921402,53.3910414 71.930737,53.4928891 71.562166,53.4928891 L28.6136013,53.4928891 C27.5090318,53.4928891 26.6136013,52.5974586 26.6136013,51.4928891 C26.6136013,51.1243196 26.7154481,50.762918 26.9078978,50.4485829 L48.3821251,15.3739424 C48.9588795,14.4319084 50.1901008,14.1357907 51.1321349,14.7125451 C51.4017784,14.8776327 51.6284416,15.1042954 51.7935298,15.3739386 Z" id="路径"></path>
                    <path d="M12.5219561,6.29487606 L6.26099062,6.29487606 L6.26099062,6.29577631 C6.26099062,9.77135036 9.06411447,12.588849 12.521956,12.588849 C15.9797975,12.588849 18.7829212,9.77135036 18.7829212,6.29577631 C18.7829212,6.29517551 18.7829212,6.2945747 18.7829212,6.29397391 L18.7829212,6.29307271 C18.7829212,2.81749865 15.9797973,1.59161573e-13 12.5219558,1.59161573e-13 C9.06411427,1.59161573e-13 6.26099062,2.81749865 6.26099062,6.29307271 C6.26099062,6.29367351 6.26099062,6.29427431 6.26099062,6.29487511 L12.5219561,6.29487606 Z" id="路径"></path>
                    <path d="M17.443123,25.6273118 L29.8668791,50.6022473 C30.3588383,51.5912113 29.9559362,52.7917368 28.9669721,53.283696 C28.690214,53.4213691 28.3853111,53.4930181 28.0762013,53.4930181 L3.2286889,53.4930181 C2.1241194,53.4930181 1.2286889,52.5975876 1.2286889,51.4930181 C1.2286889,51.1839083 1.30033799,50.8790054 1.43801102,50.6022473 L13.8617672,25.6273118 C14.3537264,24.6383477 15.5542519,24.2354456 16.543216,24.7274048 C16.9331687,24.9213864 17.2491413,25.237359 17.443123,25.6273118 Z" id="路径"></path>
                </g>
                <path d="M74.3716814,36 C72.7787611,36 71.0584071,35.3628319 69.9115044,34.0884956 C68.6371681,32.9415929 68,31.2212389 68,29.6283186 L68,-1.0658141e-14 L104,36 L74.3716814,36 Z" id="路径" fill="#5DA6FF"></path>
            </g>
        </g>
    </g>
</svg>