<?xml version="1.0" encoding="UTF-8"?>
<svg width="104px" height="126px" viewBox="0 0 104 126" version="1.1" xmlns="http://www.w3.org/2000/svg" xmlns:xlink="http://www.w3.org/1999/xlink">
    <!-- Generator: Sketch 63 (92445) - https://sketch.com -->
    <title>压缩包文件</title>
    <desc>Created with Sketch.</desc>
    <g id="文件管理" stroke="none" stroke-width="1" fill="none" fill-rule="evenodd">
        <g id="文件管理（缩略图状态）默认不选中任何文件" transform="translate(-816.000000, -468.000000)">
            <g id="编组-5备份-8" transform="translate(784.000000, 452.000000)">
                <g id="压缩包文件" transform="translate(32.000000, 16.000000)">
                    <path d="M1.87612748,1.89473684 C0.625375827,3.03157895 0,4.73684211 0,6.31578947 L0,119.684211 C0,121.263158 0.625375827,122.968421 1.87612748,124.105263 C3.12687913,125.368421 4.6903187,126 6.25375827,126 L97.7462417,126 C99.3096813,126 100.998196,125.368421 102.123873,124.105263 C103.374624,122.842105 104,121.263158 104,119.684211 L104,36 L68,0 L6.25375827,0 C4.6903187,0 3.00180397,0.631578947 1.87612748,1.89473684 Z" id="路径" fill="#2A7DE1" fill-rule="nonzero"></path>
                    <path d="M46,0 L51.9737991,0 L51.9737991,6.96813977 L46,6.96813977 L46,0 Z M52.0262009,6.96813977 L58,6.96813977 L58,13.9362795 L52.0262009,13.9362795 L52.0262009,6.96813977 L52.0262009,6.96813977 Z M46,13.9362795 L51.9737991,13.9362795 L51.9737991,20.9044193 L46,20.9044193 L46,13.9362795 L46,13.9362795 Z M52.0262009,20.9044193 L58,20.9044193 L58,27.8725591 L52.0262009,27.8725591 L52.0262009,20.9044193 L52.0262009,20.9044193 Z M46,27.8725591 L51.9737991,27.8725591 L51.9737991,34.8406989 L46,34.8406989 L46,27.8725591 L46,27.8725591 Z M52.0262009,34.8406989 L58,34.8406989 L58,41.8088386 L52.0262009,41.8088386 L52.0262009,34.8406989 L52.0262009,34.8406989 Z M48.4104803,41.8088386 L58,41.8088386 L58,57.2250771 C58,58.7667009 56.9519651,60 55.5895197,60 L48.4104803,60 C47.1004367,60 46,58.7667009 46,57.2250771 L46,44.5837616 C46,43.0421377 47.1004367,41.8088386 48.4104803,41.8088386 Z M49.5633188,46.0020555 L49.5633188,55.7451182 L54.3318777,55.7451182 L54.3318777,46.0020555 L49.5633188,46.0020555 Z" id="形状" fill="#FCFCFC" fill-rule="nonzero"></path>
                    <path d="M74.3716814,36 C72.7787611,36 71.0584071,35.3628319 69.9115044,34.0884956 C68.6371681,32.9415929 68,31.2212389 68,29.6283186 L68,-1.0658141e-14 L104,36 L74.3716814,36 Z" id="路径" fill="#5DA6FF" fill-rule="nonzero"></path>
                    <text id="ZIP" font-family="SourceHanSansCN-Medium, Source Han Sans CN" font-size="24" font-weight="400" fill="#FFFFFF">
                        <tspan x="33.244" y="108">ZIP</tspan>
                    </text>
                </g>
            </g>
        </g>
    </g>
</svg>