<?xml version="1.0" encoding="UTF-8"?>
<svg width="18px" height="22px" viewBox="0 0 18 22" fill="#FAFDFF" version="1.1" xmlns="http://www.w3.org/2000/svg" xmlns:xlink="http://www.w3.org/1999/xlink">
<!-- Generator: Sketch 63.1 (92452) - https://sketch.com -->
<title>ICON_关于</title>
<desc>Created with Sketch.</desc>
<g id="Page-1" stroke="none" stroke-width="1" fill="none" fill-rule="evenodd">
<g id="MOOZ——工作区-Copy-2" transform="translate(-139.000000, -228.000000)">
<circle id="Oval" fill="#FFFFFF" cx="157.5" cy="236.5" r="2.5"></circle>
<g id="ICON_关于" transform="translate(139.000000, 228.000000)">
<path d="M2.5638852,-1.03584031e-16 L15.4361148,1.03584031e-16 C16.3276335,-6.01853049e-17 16.6509198,0.0928256111 16.9768457,0.267132704 C17.3027716,0.441439796 17.5585602,0.697228371 17.7328673,1.0231543 C17.9071744,1.34908022 18,1.67236646 18,2.5638852 L18,19.4361148 C18,20.3276335 17.9071744,20.6509198 17.7328673,20.9768457 C17.5585602,21.3027716 17.3027716,21.5585602 16.9768457,21.7328673 C16.6509198,21.9071744 16.3276335,22 15.4361148,22 L2.5638852,22 C1.67236646,22 1.34908022,21.9071744 1.0231543,21.7328673 C0.697228371,21.5585602 0.441439796,21.3027716 0.267132704,20.9768457 C0.0928256111,20.6509198 4.01235366e-17,20.3276335 -6.90560205e-17,19.4361148 L6.90560205e-17,2.5638852 C-4.01235366e-17,1.67236646 0.0928256111,1.34908022 0.267132704,1.0231543 C0.441439796,0.697228371 0.697228371,0.441439796 1.0231543,0.267132704 C1.34908022,0.0928256111 1.67236646,6.01853049e-17 2.5638852,-1.03584031e-16 Z" id="Rectangle-12" fill="#2A7DE1"></path>
<path d="M6.31666667,4.58333333 L11.6833333,4.58333333 C12.1895944,4.58333333 12.6,4.99373898 12.6,5.5 C12.6,6.00626102 12.1895944,6.41666667 11.6833333,6.41666667 L6.31666667,6.41666667 C5.81040565,6.41666667 5.4,6.00626102 5.4,5.5 C5.4,4.99373898 5.81040565,4.58333333 6.31666667,4.58333333 Z" id="Rectangle-13" fill="#FFFFFF"></path>
<path d="M4.51666667,11 L13.4833333,11 C13.9895944,11 14.4,11.4104056 14.4,11.9166667 C14.4,12.4229277 13.9895944,12.8333333 13.4833333,12.8333333 L4.51666667,12.8333333 C4.01040565,12.8333333 3.6,12.4229277 3.6,11.9166667 C3.6,11.4104056 4.01040565,11 4.51666667,11 Z" id="Rectangle-13-Copy" fill="#FFFFFF"></path>
<path d="M4.51666667,15.5833333 L13.4833333,15.5833333 C13.9895944,15.5833333 14.4,15.993739 14.4,16.5 C14.4,17.006261 13.9895944,17.4166667 13.4833333,17.4166667 L4.51666667,17.4166667 C4.01040565,17.4166667 3.6,17.006261 3.6,16.5 C3.6,15.993739 4.01040565,15.5833333 4.51666667,15.5833333 Z" id="Rectangle-13-Copy-2" fill="#FFFFFF"></path>
</g>
</g>
</g>
</svg>
