<?xml version="1.0" encoding="UTF-8"?>
<svg width="20px" height="20px" viewBox="0 0 20 20" version="1.1" xmlns="http://www.w3.org/2000/svg" xmlns:xlink="http://www.w3.org/1999/xlink">
<!-- Generator: Sketch 63.1 (92452) - https://sketch.com -->
<title>icon_通用</title>
<desc>Created with Sketch.</desc>
<g id="Page-1" stroke="none" stroke-width="1" fill="none" fill-rule="evenodd">
<g id="MOOZ——工作区-Copy-2" transform="translate(-138.000000, -180.000000)">
<rect id="backgroup" fill="#FAFDFF" x="0" y="0" width="1440" height="900" rx="1"></rect>
<g id="icon_通用" transform="translate(138.000000, 180.000000)">
<rect id="Rectangle-2" fill="#2A7DE1" x="0" y="0" width="20" height="20" rx="2"></rect>
<g id="Group" transform="translate(4.000000, 4.000000)" fill="#FFFFFF">
<path d="M2.16666667,-1.5308085e-17 C2.38687269,-2.51431061e-17 2.58064507,0.0469683611 2.7411389,0.134060179 C2.90163273,0.221151997 3.028848,0.348367272 3.11593982,0.508861099 C3.20303164,0.669354926 3.25,0.863127306 3.25,1.08333333 L3.25,11.9166667 C3.25,12.1368727 3.20303164,12.3306451 3.11593982,12.4911389 C3.028848,12.6516327 2.90163273,12.778848 2.7411389,12.8659398 C2.58064507,12.9530316 2.38687269,13 2.16666667,13 C1.94646064,13 1.75268826,12.9530316 1.59219443,12.8659398 C1.43170061,12.778848 1.30448533,12.6516327 1.21739351,12.4911389 C1.13030169,12.3306451 1.08333333,12.1368727 1.08333333,11.9166667 L1.08333333,1.08333333 C1.08333333,0.863127306 1.13030169,0.669354926 1.21739351,0.508861099 C1.30448533,0.348367272 1.43170061,0.221151997 1.59219443,0.134060179 C1.75268826,0.0469683611 1.94646064,2.51431061e-17 2.16666667,-1.5308085e-17 Z" id="Rectangle-4"></path>
<circle id="Oval-2" cx="2.16666667" cy="4.33333333" r="2.16666667"></circle>
<circle id="Oval-2-Copy" cx="10.8333333" cy="8.66666667" r="2.16666667"></circle>
<path d="M10.8333333,-1.5308085e-17 C11.0535394,-2.51431061e-17 11.2473117,0.0469683611 11.4078056,0.134060179 C11.5682994,0.221151997 11.6955147,0.348367272 11.7826065,0.508861099 C11.8696983,0.669354926 11.9166667,0.863127306 11.9166667,1.08333333 L11.9166667,11.9166667 C11.9166667,12.1368727 11.8696983,12.3306451 11.7826065,12.4911389 C11.6955147,12.6516327 11.5682994,12.778848 11.4078056,12.8659398 C11.2473117,12.9530316 11.0535394,13 10.8333333,13 C10.6131273,13 10.4193549,12.9530316 10.2588611,12.8659398 C10.0983673,12.778848 9.971152,12.6516327 9.88406018,12.4911389 C9.79696836,12.3306451 9.75,12.1368727 9.75,11.9166667 L9.75,1.08333333 C9.75,0.863127306 9.79696836,0.669354926 9.88406018,0.508861099 C9.971152,0.348367272 10.0983673,0.221151997 10.2588611,0.134060179 C10.4193549,0.0469683611 10.6131273,2.51431061e-17 10.8333333,-1.5308085e-17 Z" id="Rectangle-4-Copy"></path>
</g>
</g>
</g>
</g>
</svg>
